<!DOCTYPE svg PUBLIC "-//W3C//DTD SVG 1.1//EN" "http://www.w3.org/Graphics/SVG/1.1/DTD/svg11.dtd"><svg xmlns="http://www.w3.org/2000/svg" xmlns:xlink="http://www.w3.org/1999/xlink" xmlns:ev="http://www.w3.org/2001/xml-events" width="418.25" height="185.5" viewBox="178 318 239 106" version="1.1">
<!-- Generated by pstoedit version:3.44 from C:/EclipseTrial/arm7/arm7tdmi/DDI0210_arm7tdmi_trm/graphics/instruction_pipeline.eps -->
<g xml:space="preserve">

<g style="clip-path:url(#clippath1)"> 
<g fill="#ffffff" fill-rule="evenodd" stroke-width="0.2px" stroke-linejoin="miter" stroke-linecap="butt" stroke-miterlimit="2.6131">
	<path d="  M 181.092 345.338   L 256.751 345.338   L 256.751 320.822   L 181.092 320.822   Z   " />
</g>
<g stroke="#000000" fill="none" stroke-width="0.23953px" stroke-linejoin="miter" stroke-linecap="butt" stroke-miterlimit="2.6131">
	<path d="  M 181.092 345.338   L 256.751 345.338   L 256.751 320.822   L 181.092 320.822   Z   " />
</g>
<g style="stroke:none;fill:#000000;text-rendering:optimizeGeometricPrecision;font-size:9.97439px;font-family:Arial,Helvetica,sans-serif">
	<text transform="matrix(1 0 0 1 206.392 336.084)">F</text>
</g>
<g style="stroke:none;fill:#000000;text-rendering:optimizeGeometricPrecision;font-size:9.97439px;font-family:Arial,Helvetica,sans-serif">
	<text transform="matrix(1 0 0 1 212.507 336.084)">e</text>
</g>
<g style="stroke:none;fill:#000000;text-rendering:optimizeGeometricPrecision;font-size:9.97439px;font-family:Arial,Helvetica,sans-serif">
	<text transform="matrix(1 0 0 1 218.022 336.084)">t</text>
</g>
<g style="stroke:none;fill:#000000;text-rendering:optimizeGeometricPrecision;font-size:9.97439px;font-family:Arial,Helvetica,sans-serif">
	<text transform="matrix(1 0 0 1 220.78 336.084)">c</text>
</g>
<g style="stroke:none;fill:#000000;text-rendering:optimizeGeometricPrecision;font-size:9.97439px;font-family:Arial,Helvetica,sans-serif">
	<text transform="matrix(1 0 0 1 225.816 336.084)">h</text>
</g>
<g stroke="#000000" fill="none" stroke-width="0.23953px" stroke-linejoin="miter" stroke-linecap="butt" stroke-miterlimit="2.6131">
	<path d="  M 218.862 345.338   L 218.862 352.789   " />
</g>
<g fill="#000000" fill-rule="evenodd" stroke-width="0.2px" stroke-linejoin="miter" stroke-linecap="butt" stroke-miterlimit="2.6131">
	<path d="  M 216.104 352.067   L 218.862 357.595   L 221.619 352.067   Z   " />
</g>
<g fill="#ffffff" fill-rule="evenodd" stroke-width="0.2px" stroke-linejoin="miter" stroke-linecap="butt" stroke-miterlimit="2.6131">
	<path d="  M 181.092 382.232   L 256.751 382.232   L 256.751 357.595   L 181.092 357.595   Z   " />
</g>
<g stroke="#000000" fill="none" stroke-width="0.23953px" stroke-linejoin="miter" stroke-linecap="butt" stroke-miterlimit="2.6131">
	<path d="  M 181.092 382.232   L 256.751 382.232   L 256.751 357.595   L 181.092 357.595   Z   " />
</g>
<g style="stroke:none;fill:#000000;text-rendering:optimizeGeometricPrecision;font-size:9.97439px;font-family:Arial,Helvetica,sans-serif">
	<text transform="matrix(1 0 0 1 201.715 372.978)">D</text>
</g>
<g style="stroke:none;fill:#000000;text-rendering:optimizeGeometricPrecision;font-size:9.97439px;font-family:Arial,Helvetica,sans-serif">
	<text transform="matrix(1 0 0 1 208.91 372.978)">e</text>
</g>
<g style="stroke:none;fill:#000000;text-rendering:optimizeGeometricPrecision;font-size:9.97439px;font-family:Arial,Helvetica,sans-serif">
	<text transform="matrix(1 0 0 1 214.425 372.978)">c</text>
</g>
<g style="stroke:none;fill:#000000;text-rendering:optimizeGeometricPrecision;font-size:9.97439px;font-family:Arial,Helvetica,sans-serif">
	<text transform="matrix(1 0 0 1 219.461 372.978)">o</text>
</g>
<g style="stroke:none;fill:#000000;text-rendering:optimizeGeometricPrecision;font-size:9.97439px;font-family:Arial,Helvetica,sans-serif">
	<text transform="matrix(1 0 0 1 224.977 372.978)">d</text>
</g>
<g style="stroke:none;fill:#000000;text-rendering:optimizeGeometricPrecision;font-size:9.97439px;font-family:Arial,Helvetica,sans-serif">
	<text transform="matrix(1 0 0 1 230.492 372.978)">e</text>
</g>
<g stroke="#000000" fill="none" stroke-width="0.23953px" stroke-linejoin="miter" stroke-linecap="butt" stroke-miterlimit="2.6131">
	<path d="  M 218.862 382.232   L 218.862 389.683   " />
</g>
<g fill="#000000" fill-rule="evenodd" stroke-width="0.2px" stroke-linejoin="miter" stroke-linecap="butt" stroke-miterlimit="2.6131">
	<path d="  M 216.104 388.961   L 218.862 394.49   L 221.619 388.961   Z   " />
</g>
<g fill="#ffffff" fill-rule="evenodd" stroke-width="0.2px" stroke-linejoin="miter" stroke-linecap="butt" stroke-miterlimit="2.6131">
	<path d="  M 181.092 419.125   L 256.751 419.125   L 256.751 394.49   L 181.092 394.49   Z   " />
</g>
<g stroke="#000000" fill="none" stroke-width="0.23953px" stroke-linejoin="miter" stroke-linecap="butt" stroke-miterlimit="2.6131">
	<path d="  M 181.092 419.125   L 256.751 419.125   L 256.751 394.49   L 181.092 394.49   Z   " />
</g>
<g style="stroke:none;fill:#000000;text-rendering:optimizeGeometricPrecision;font-size:9.97439px;font-family:Arial,Helvetica,sans-serif">
	<text transform="matrix(1 0 0 1 200.876 409.752)">E</text>
</g>
<g style="stroke:none;fill:#000000;text-rendering:optimizeGeometricPrecision;font-size:9.97439px;font-family:Arial,Helvetica,sans-serif">
	<text transform="matrix(1 0 0 1 207.471 409.752)">x</text>
</g>
<g style="stroke:none;fill:#000000;text-rendering:optimizeGeometricPrecision;font-size:9.97439px;font-family:Arial,Helvetica,sans-serif">
	<text transform="matrix(1 0 0 1 212.507 409.752)">e</text>
</g>
<g style="stroke:none;fill:#000000;text-rendering:optimizeGeometricPrecision;font-size:9.97439px;font-family:Arial,Helvetica,sans-serif">
	<text transform="matrix(1 0 0 1 218.022 409.752)">c</text>
</g>
<g style="stroke:none;fill:#000000;text-rendering:optimizeGeometricPrecision;font-size:9.97439px;font-family:Arial,Helvetica,sans-serif">
	<text transform="matrix(1 0 0 1 223.058 409.752)">u</text>
</g>
<g style="stroke:none;fill:#000000;text-rendering:optimizeGeometricPrecision;font-size:9.97439px;font-family:Arial,Helvetica,sans-serif">
	<text transform="matrix(1 0 0 1 228.573 409.752)">t</text>
</g>
<g style="stroke:none;fill:#000000;text-rendering:optimizeGeometricPrecision;font-size:9.97439px;font-family:Arial,Helvetica,sans-serif">
	<text transform="matrix(1 0 0 1 231.331 409.752)">e</text>
</g>
<g style="stroke:none;fill:#000000;text-rendering:optimizeGeometricPrecision;font-size:8.0514px;font-family:Arial,Helvetica,sans-serif">
	<text transform="matrix(1 0 0 1 265.743 335.483)">I</text>
</g>
<g style="stroke:none;fill:#000000;text-rendering:optimizeGeometricPrecision;font-size:8.0514px;font-family:Arial,Helvetica,sans-serif">
	<text transform="matrix(1 0 0 1 268.021 335.483)">n</text>
</g>
<g style="stroke:none;fill:#000000;text-rendering:optimizeGeometricPrecision;font-size:8.0514px;font-family:Arial,Helvetica,sans-serif">
	<text transform="matrix(1 0 0 1 272.458 335.483)">s</text>
</g>
<g style="stroke:none;fill:#000000;text-rendering:optimizeGeometricPrecision;font-size:8.0514px;font-family:Arial,Helvetica,sans-serif">
	<text transform="matrix(1 0 0 1 276.535 335.483)">t</text>
</g>
<g style="stroke:none;fill:#000000;text-rendering:optimizeGeometricPrecision;font-size:8.0514px;font-family:Arial,Helvetica,sans-serif">
	<text transform="matrix(1 0 0 1 278.813 335.483)">r</text>
</g>
<g style="stroke:none;fill:#000000;text-rendering:optimizeGeometricPrecision;font-size:8.0514px;font-family:Arial,Helvetica,sans-serif">
	<text transform="matrix(1 0 0 1 281.451 335.483)">u</text>
</g>
<g style="stroke:none;fill:#000000;text-rendering:optimizeGeometricPrecision;font-size:8.0514px;font-family:Arial,Helvetica,sans-serif">
	<text transform="matrix(1 0 0 1 285.887 335.483)">c</text>
</g>
<g style="stroke:none;fill:#000000;text-rendering:optimizeGeometricPrecision;font-size:8.0514px;font-family:Arial,Helvetica,sans-serif">
	<text transform="matrix(1 0 0 1 289.964 335.483)">t</text>
</g>
<g style="stroke:none;fill:#000000;text-rendering:optimizeGeometricPrecision;font-size:8.0514px;font-family:Arial,Helvetica,sans-serif">
	<text transform="matrix(1 0 0 1 292.242 335.483)">i</text>
</g>
<g style="stroke:none;fill:#000000;text-rendering:optimizeGeometricPrecision;font-size:8.0514px;font-family:Arial,Helvetica,sans-serif">
	<text transform="matrix(1 0 0 1 294.041 335.483)">o</text>
</g>
<g style="stroke:none;fill:#000000;text-rendering:optimizeGeometricPrecision;font-size:8.0514px;font-family:Arial,Helvetica,sans-serif">
	<text transform="matrix(1 0 0 1 298.477 335.483)">n</text>
</g>
<g style="stroke:none;fill:#000000;text-rendering:optimizeGeometricPrecision;font-size:8.0514px;font-family:Arial,Helvetica,sans-serif">
	<text transform="matrix(1 0 0 1 305.191 335.483)">f</text>
</g>
<g style="stroke:none;fill:#000000;text-rendering:optimizeGeometricPrecision;font-size:8.0514px;font-family:Arial,Helvetica,sans-serif">
	<text transform="matrix(1 0 0 1 307.47 335.483)">e</text>
</g>
<g style="stroke:none;fill:#000000;text-rendering:optimizeGeometricPrecision;font-size:8.0514px;font-family:Arial,Helvetica,sans-serif">
	<text transform="matrix(1 0 0 1 311.906 335.483)">t</text>
</g>
<g style="stroke:none;fill:#000000;text-rendering:optimizeGeometricPrecision;font-size:8.0514px;font-family:Arial,Helvetica,sans-serif">
	<text transform="matrix(1 0 0 1 314.184 335.483)">c</text>
</g>
<g style="stroke:none;fill:#000000;text-rendering:optimizeGeometricPrecision;font-size:8.0514px;font-family:Arial,Helvetica,sans-serif">
	<text transform="matrix(1 0 0 1 318.26 335.483)">h</text>
</g>
<g style="stroke:none;fill:#000000;text-rendering:optimizeGeometricPrecision;font-size:8.0514px;font-family:Arial,Helvetica,sans-serif">
	<text transform="matrix(1 0 0 1 322.697 335.483)">e</text>
</g>
<g style="stroke:none;fill:#000000;text-rendering:optimizeGeometricPrecision;font-size:8.0514px;font-family:Arial,Helvetica,sans-serif">
	<text transform="matrix(1 0 0 1 327.134 335.483)">d</text>
</g>
<g style="stroke:none;fill:#000000;text-rendering:optimizeGeometricPrecision;font-size:8.0514px;font-family:Arial,Helvetica,sans-serif">
	<text transform="matrix(1 0 0 1 333.848 335.483)">f</text>
</g>
<g style="stroke:none;fill:#000000;text-rendering:optimizeGeometricPrecision;font-size:8.0514px;font-family:Arial,Helvetica,sans-serif">
	<text transform="matrix(1 0 0 1 336.126 335.483)">r</text>
</g>
<g style="stroke:none;fill:#000000;text-rendering:optimizeGeometricPrecision;font-size:8.0514px;font-family:Arial,Helvetica,sans-serif">
	<text transform="matrix(1 0 0 1 338.764 335.483)">o</text>
</g>
<g style="stroke:none;fill:#000000;text-rendering:optimizeGeometricPrecision;font-size:8.0514px;font-family:Arial,Helvetica,sans-serif">
	<text transform="matrix(1 0 0 1 343.201 335.483)">m</text>
</g>
<g style="stroke:none;fill:#000000;text-rendering:optimizeGeometricPrecision;font-size:8.0514px;font-family:Arial,Helvetica,sans-serif">
	<text transform="matrix(1 0 0 1 352.313 335.483)">m</text>
</g>
<g style="stroke:none;fill:#000000;text-rendering:optimizeGeometricPrecision;font-size:8.0514px;font-family:Arial,Helvetica,sans-serif">
	<text transform="matrix(1 0 0 1 359.148 335.483)">e</text>
</g>
<g style="stroke:none;fill:#000000;text-rendering:optimizeGeometricPrecision;font-size:8.0514px;font-family:Arial,Helvetica,sans-serif">
	<text transform="matrix(1 0 0 1 363.584 335.483)">m</text>
</g>
<g style="stroke:none;fill:#000000;text-rendering:optimizeGeometricPrecision;font-size:8.0514px;font-family:Arial,Helvetica,sans-serif">
	<text transform="matrix(1 0 0 1 370.419 335.483)">o</text>
</g>
<g style="stroke:none;fill:#000000;text-rendering:optimizeGeometricPrecision;font-size:8.0514px;font-family:Arial,Helvetica,sans-serif">
	<text transform="matrix(1 0 0 1 374.855 335.483)">r</text>
</g>
<g style="stroke:none;fill:#000000;text-rendering:optimizeGeometricPrecision;font-size:8.0514px;font-family:Arial,Helvetica,sans-serif">
	<text transform="matrix(1 0 0 1 377.493 335.483)">y</text>
</g>
<g style="stroke:none;fill:#000000;text-rendering:optimizeGeometricPrecision;font-size:8.0514px;font-family:Arial,Helvetica,sans-serif">
	<text transform="matrix(1 0 0 1 265.743 367.57)">D</text>
</g>
<g style="stroke:none;fill:#000000;text-rendering:optimizeGeometricPrecision;font-size:8.0514px;font-family:Arial,Helvetica,sans-serif">
	<text transform="matrix(1 0 0 1 271.499 367.57)">e</text>
</g>
<g style="stroke:none;fill:#000000;text-rendering:optimizeGeometricPrecision;font-size:8.0514px;font-family:Arial,Helvetica,sans-serif">
	<text transform="matrix(1 0 0 1 275.935 367.57)">c</text>
</g>
<g style="stroke:none;fill:#000000;text-rendering:optimizeGeometricPrecision;font-size:8.0514px;font-family:Arial,Helvetica,sans-serif">
	<text transform="matrix(1 0 0 1 280.012 367.57)">o</text>
</g>
<g style="stroke:none;fill:#000000;text-rendering:optimizeGeometricPrecision;font-size:8.0514px;font-family:Arial,Helvetica,sans-serif">
	<text transform="matrix(1 0 0 1 284.448 367.57)">d</text>
</g>
<g style="stroke:none;fill:#000000;text-rendering:optimizeGeometricPrecision;font-size:8.0514px;font-family:Arial,Helvetica,sans-serif">
	<text transform="matrix(1 0 0 1 288.885 367.57)">i</text>
</g>
<g style="stroke:none;fill:#000000;text-rendering:optimizeGeometricPrecision;font-size:8.0514px;font-family:Arial,Helvetica,sans-serif">
	<text transform="matrix(1 0 0 1 290.683 367.57)">n</text>
</g>
<g style="stroke:none;fill:#000000;text-rendering:optimizeGeometricPrecision;font-size:8.0514px;font-family:Arial,Helvetica,sans-serif">
	<text transform="matrix(1 0 0 1 295.12 367.57)">g</text>
</g>
<g style="stroke:none;fill:#000000;text-rendering:optimizeGeometricPrecision;font-size:8.0514px;font-family:Arial,Helvetica,sans-serif">
	<text transform="matrix(1 0 0 1 301.834 367.57)">o</text>
</g>
<g style="stroke:none;fill:#000000;text-rendering:optimizeGeometricPrecision;font-size:8.0514px;font-family:Arial,Helvetica,sans-serif">
	<text transform="matrix(1 0 0 1 306.271 367.57)">f</text>
</g>
<g style="stroke:none;fill:#000000;text-rendering:optimizeGeometricPrecision;font-size:8.0514px;font-family:Arial,Helvetica,sans-serif">
	<text transform="matrix(1 0 0 1 310.827 367.57)">r</text>
</g>
<g style="stroke:none;fill:#000000;text-rendering:optimizeGeometricPrecision;font-size:8.0514px;font-family:Arial,Helvetica,sans-serif">
	<text transform="matrix(1 0 0 1 313.465 367.57)">e</text>
</g>
<g style="stroke:none;fill:#000000;text-rendering:optimizeGeometricPrecision;font-size:8.0514px;font-family:Arial,Helvetica,sans-serif">
	<text transform="matrix(1 0 0 1 317.901 367.57)">g</text>
</g>
<g style="stroke:none;fill:#000000;text-rendering:optimizeGeometricPrecision;font-size:8.0514px;font-family:Arial,Helvetica,sans-serif">
	<text transform="matrix(1 0 0 1 322.338 367.57)">i</text>
</g>
<g style="stroke:none;fill:#000000;text-rendering:optimizeGeometricPrecision;font-size:8.0514px;font-family:Arial,Helvetica,sans-serif">
	<text transform="matrix(1 0 0 1 324.136 367.57)">s</text>
</g>
<g style="stroke:none;fill:#000000;text-rendering:optimizeGeometricPrecision;font-size:8.0514px;font-family:Arial,Helvetica,sans-serif">
	<text transform="matrix(1 0 0 1 328.213 367.57)">t</text>
</g>
<g style="stroke:none;fill:#000000;text-rendering:optimizeGeometricPrecision;font-size:8.0514px;font-family:Arial,Helvetica,sans-serif">
	<text transform="matrix(1 0 0 1 330.491 367.57)">e</text>
</g>
<g style="stroke:none;fill:#000000;text-rendering:optimizeGeometricPrecision;font-size:8.0514px;font-family:Arial,Helvetica,sans-serif">
	<text transform="matrix(1 0 0 1 334.927 367.57)">r</text>
</g>
<g style="stroke:none;fill:#000000;text-rendering:optimizeGeometricPrecision;font-size:8.0514px;font-family:Arial,Helvetica,sans-serif">
	<text transform="matrix(1 0 0 1 337.565 367.57)">s</text>
</g>
<g style="stroke:none;fill:#000000;text-rendering:optimizeGeometricPrecision;font-size:8.0514px;font-family:Arial,Helvetica,sans-serif">
	<text transform="matrix(1 0 0 1 343.92 367.57)">u</text>
</g>
<g style="stroke:none;fill:#000000;text-rendering:optimizeGeometricPrecision;font-size:8.0514px;font-family:Arial,Helvetica,sans-serif">
	<text transform="matrix(1 0 0 1 348.357 367.57)">s</text>
</g>
<g style="stroke:none;fill:#000000;text-rendering:optimizeGeometricPrecision;font-size:8.0514px;font-family:Arial,Helvetica,sans-serif">
	<text transform="matrix(1 0 0 1 352.433 367.57)">e</text>
</g>
<g style="stroke:none;fill:#000000;text-rendering:optimizeGeometricPrecision;font-size:8.0514px;font-family:Arial,Helvetica,sans-serif">
	<text transform="matrix(1 0 0 1 356.87 367.57)">d</text>
</g>
<g style="stroke:none;fill:#000000;text-rendering:optimizeGeometricPrecision;font-size:8.0514px;font-family:Arial,Helvetica,sans-serif">
	<text transform="matrix(1 0 0 1 363.584 367.57)">i</text>
</g>
<g style="stroke:none;fill:#000000;text-rendering:optimizeGeometricPrecision;font-size:8.0514px;font-family:Arial,Helvetica,sans-serif">
	<text transform="matrix(1 0 0 1 365.383 367.57)">n</text>
</g>
<g style="stroke:none;fill:#000000;text-rendering:optimizeGeometricPrecision;font-size:8.0514px;font-family:Arial,Helvetica,sans-serif">
	<text transform="matrix(1 0 0 1 265.743 377.184)">i</text>
</g>
<g style="stroke:none;fill:#000000;text-rendering:optimizeGeometricPrecision;font-size:8.0514px;font-family:Arial,Helvetica,sans-serif">
	<text transform="matrix(1 0 0 1 267.542 377.184)">n</text>
</g>
<g style="stroke:none;fill:#000000;text-rendering:optimizeGeometricPrecision;font-size:8.0514px;font-family:Arial,Helvetica,sans-serif">
	<text transform="matrix(1 0 0 1 271.979 377.184)">s</text>
</g>
<g style="stroke:none;fill:#000000;text-rendering:optimizeGeometricPrecision;font-size:8.0514px;font-family:Arial,Helvetica,sans-serif">
	<text transform="matrix(1 0 0 1 276.055 377.184)">t</text>
</g>
<g style="stroke:none;fill:#000000;text-rendering:optimizeGeometricPrecision;font-size:8.0514px;font-family:Arial,Helvetica,sans-serif">
	<text transform="matrix(1 0 0 1 278.333 377.184)">r</text>
</g>
<g style="stroke:none;fill:#000000;text-rendering:optimizeGeometricPrecision;font-size:8.0514px;font-family:Arial,Helvetica,sans-serif">
	<text transform="matrix(1 0 0 1 280.971 377.184)">u</text>
</g>
<g style="stroke:none;fill:#000000;text-rendering:optimizeGeometricPrecision;font-size:8.0514px;font-family:Arial,Helvetica,sans-serif">
	<text transform="matrix(1 0 0 1 285.408 377.184)">c</text>
</g>
<g style="stroke:none;fill:#000000;text-rendering:optimizeGeometricPrecision;font-size:8.0514px;font-family:Arial,Helvetica,sans-serif">
	<text transform="matrix(1 0 0 1 289.484 377.184)">t</text>
</g>
<g style="stroke:none;fill:#000000;text-rendering:optimizeGeometricPrecision;font-size:8.0514px;font-family:Arial,Helvetica,sans-serif">
	<text transform="matrix(1 0 0 1 291.762 377.184)">i</text>
</g>
<g style="stroke:none;fill:#000000;text-rendering:optimizeGeometricPrecision;font-size:8.0514px;font-family:Arial,Helvetica,sans-serif">
	<text transform="matrix(1 0 0 1 293.561 377.184)">o</text>
</g>
<g style="stroke:none;fill:#000000;text-rendering:optimizeGeometricPrecision;font-size:8.0514px;font-family:Arial,Helvetica,sans-serif">
	<text transform="matrix(1 0 0 1 297.997 377.184)">n</text>
</g>
<g style="stroke:none;fill:#000000;text-rendering:optimizeGeometricPrecision;font-size:8.0514px;font-family:Arial,Helvetica,sans-serif">
	<text transform="matrix(1 0 0 1 265.743 399.537)">R</text>
</g>
<g style="stroke:none;fill:#000000;text-rendering:optimizeGeometricPrecision;font-size:8.0514px;font-family:Arial,Helvetica,sans-serif">
	<text transform="matrix(1 0 0 1 271.499 399.537)">e</text>
</g>
<g style="stroke:none;fill:#000000;text-rendering:optimizeGeometricPrecision;font-size:8.0514px;font-family:Arial,Helvetica,sans-serif">
	<text transform="matrix(1 0 0 1 275.935 399.537)">g</text>
</g>
<g style="stroke:none;fill:#000000;text-rendering:optimizeGeometricPrecision;font-size:8.0514px;font-family:Arial,Helvetica,sans-serif">
	<text transform="matrix(1 0 0 1 280.372 399.537)">i</text>
</g>
<g style="stroke:none;fill:#000000;text-rendering:optimizeGeometricPrecision;font-size:8.0514px;font-family:Arial,Helvetica,sans-serif">
	<text transform="matrix(1 0 0 1 282.17 399.537)">s</text>
</g>
<g style="stroke:none;fill:#000000;text-rendering:optimizeGeometricPrecision;font-size:8.0514px;font-family:Arial,Helvetica,sans-serif">
	<text transform="matrix(1 0 0 1 286.247 399.537)">t</text>
</g>
<g style="stroke:none;fill:#000000;text-rendering:optimizeGeometricPrecision;font-size:8.0514px;font-family:Arial,Helvetica,sans-serif">
	<text transform="matrix(1 0 0 1 288.525 399.537)">e</text>
</g>
<g style="stroke:none;fill:#000000;text-rendering:optimizeGeometricPrecision;font-size:8.0514px;font-family:Arial,Helvetica,sans-serif">
	<text transform="matrix(1 0 0 1 292.961 399.537)">r</text>
</g>
<g style="stroke:none;fill:#000000;text-rendering:optimizeGeometricPrecision;font-size:8.0514px;font-family:Arial,Helvetica,sans-serif">
	<text transform="matrix(1 0 0 1 295.599 399.537)">(</text>
</g>
<g style="stroke:none;fill:#000000;text-rendering:optimizeGeometricPrecision;font-size:8.0514px;font-family:Arial,Helvetica,sans-serif">
	<text transform="matrix(1 0 0 1 298.237 399.537)">s</text>
</g>
<g style="stroke:none;fill:#000000;text-rendering:optimizeGeometricPrecision;font-size:8.0514px;font-family:Arial,Helvetica,sans-serif">
	<text transform="matrix(1 0 0 1 302.314 399.537)">)</text>
</g>
<g style="stroke:none;fill:#000000;text-rendering:optimizeGeometricPrecision;font-size:8.0514px;font-family:Arial,Helvetica,sans-serif">
	<text transform="matrix(1 0 0 1 307.229 399.537)">r</text>
</g>
<g style="stroke:none;fill:#000000;text-rendering:optimizeGeometricPrecision;font-size:8.0514px;font-family:Arial,Helvetica,sans-serif">
	<text transform="matrix(1 0 0 1 309.868 399.537)">e</text>
</g>
<g style="stroke:none;fill:#000000;text-rendering:optimizeGeometricPrecision;font-size:8.0514px;font-family:Arial,Helvetica,sans-serif">
	<text transform="matrix(1 0 0 1 314.304 399.537)">a</text>
</g>
<g style="stroke:none;fill:#000000;text-rendering:optimizeGeometricPrecision;font-size:8.0514px;font-family:Arial,Helvetica,sans-serif">
	<text transform="matrix(1 0 0 1 318.74 399.537)">d</text>
</g>
<g style="stroke:none;fill:#000000;text-rendering:optimizeGeometricPrecision;font-size:8.0514px;font-family:Arial,Helvetica,sans-serif">
	<text transform="matrix(1 0 0 1 325.455 399.537)">f</text>
</g>
<g style="stroke:none;fill:#000000;text-rendering:optimizeGeometricPrecision;font-size:8.0514px;font-family:Arial,Helvetica,sans-serif">
	<text transform="matrix(1 0 0 1 327.733 399.537)">r</text>
</g>
<g style="stroke:none;fill:#000000;text-rendering:optimizeGeometricPrecision;font-size:8.0514px;font-family:Arial,Helvetica,sans-serif">
	<text transform="matrix(1 0 0 1 330.371 399.537)">o</text>
</g>
<g style="stroke:none;fill:#000000;text-rendering:optimizeGeometricPrecision;font-size:8.0514px;font-family:Arial,Helvetica,sans-serif">
	<text transform="matrix(1 0 0 1 334.808 399.537)">m</text>
</g>
<g style="stroke:none;fill:#000000;text-rendering:optimizeGeometricPrecision;font-size:8.0514px;font-family:Arial,Helvetica,sans-serif">
	<text transform="matrix(1 0 0 1 343.92 399.537)">r</text>
</g>
<g style="stroke:none;fill:#000000;text-rendering:optimizeGeometricPrecision;font-size:8.0514px;font-family:Arial,Helvetica,sans-serif">
	<text transform="matrix(1 0 0 1 346.558 399.537)">e</text>
</g>
<g style="stroke:none;fill:#000000;text-rendering:optimizeGeometricPrecision;font-size:8.0514px;font-family:Arial,Helvetica,sans-serif">
	<text transform="matrix(1 0 0 1 350.994 399.537)">g</text>
</g>
<g style="stroke:none;fill:#000000;text-rendering:optimizeGeometricPrecision;font-size:8.0514px;font-family:Arial,Helvetica,sans-serif">
	<text transform="matrix(1 0 0 1 355.431 399.537)">i</text>
</g>
<g style="stroke:none;fill:#000000;text-rendering:optimizeGeometricPrecision;font-size:8.0514px;font-family:Arial,Helvetica,sans-serif">
	<text transform="matrix(1 0 0 1 357.229 399.537)">s</text>
</g>
<g style="stroke:none;fill:#000000;text-rendering:optimizeGeometricPrecision;font-size:8.0514px;font-family:Arial,Helvetica,sans-serif">
	<text transform="matrix(1 0 0 1 361.306 399.537)">t</text>
</g>
<g style="stroke:none;fill:#000000;text-rendering:optimizeGeometricPrecision;font-size:8.0514px;font-family:Arial,Helvetica,sans-serif">
	<text transform="matrix(1 0 0 1 363.584 399.537)">e</text>
</g>
<g style="stroke:none;fill:#000000;text-rendering:optimizeGeometricPrecision;font-size:8.0514px;font-family:Arial,Helvetica,sans-serif">
	<text transform="matrix(1 0 0 1 368.021 399.537)">r</text>
</g>
<g style="stroke:none;fill:#000000;text-rendering:optimizeGeometricPrecision;font-size:8.0514px;font-family:Arial,Helvetica,sans-serif">
	<text transform="matrix(1 0 0 1 372.936 399.537)">b</text>
</g>
<g style="stroke:none;fill:#000000;text-rendering:optimizeGeometricPrecision;font-size:8.0514px;font-family:Arial,Helvetica,sans-serif">
	<text transform="matrix(1 0 0 1 377.373 399.537)">a</text>
</g>
<g style="stroke:none;fill:#000000;text-rendering:optimizeGeometricPrecision;font-size:8.0514px;font-family:Arial,Helvetica,sans-serif">
	<text transform="matrix(1 0 0 1 381.81 399.537)">n</text>
</g>
<g style="stroke:none;fill:#000000;text-rendering:optimizeGeometricPrecision;font-size:8.0514px;font-family:Arial,Helvetica,sans-serif">
	<text transform="matrix(1 0 0 1 386.246 399.537)">k</text>
</g>
<g style="stroke:none;fill:#000000;text-rendering:optimizeGeometricPrecision;font-size:8.0514px;font-family:Arial,Helvetica,sans-serif">
	<text transform="matrix(1 0 0 1 265.743 409.151)">S</text>
</g>
<g style="stroke:none;fill:#000000;text-rendering:optimizeGeometricPrecision;font-size:8.0514px;font-family:Arial,Helvetica,sans-serif">
	<text transform="matrix(1 0 0 1 271.139 409.151)">h</text>
</g>
<g style="stroke:none;fill:#000000;text-rendering:optimizeGeometricPrecision;font-size:8.0514px;font-family:Arial,Helvetica,sans-serif">
	<text transform="matrix(1 0 0 1 275.576 409.151)">i</text>
</g>
<g style="stroke:none;fill:#000000;text-rendering:optimizeGeometricPrecision;font-size:8.0514px;font-family:Arial,Helvetica,sans-serif">
	<text transform="matrix(1 0 0 1 277.374 409.151)">f</text>
</g>
<g style="stroke:none;fill:#000000;text-rendering:optimizeGeometricPrecision;font-size:8.0514px;font-family:Arial,Helvetica,sans-serif">
	<text transform="matrix(1 0 0 1 279.652 409.151)">t</text>
</g>
<g style="stroke:none;fill:#000000;text-rendering:optimizeGeometricPrecision;font-size:8.0514px;font-family:Arial,Helvetica,sans-serif">
	<text transform="matrix(1 0 0 1 284.208 409.151)">a</text>
</g>
<g style="stroke:none;fill:#000000;text-rendering:optimizeGeometricPrecision;font-size:8.0514px;font-family:Arial,Helvetica,sans-serif">
	<text transform="matrix(1 0 0 1 288.645 409.151)">n</text>
</g>
<g style="stroke:none;fill:#000000;text-rendering:optimizeGeometricPrecision;font-size:8.0514px;font-family:Arial,Helvetica,sans-serif">
	<text transform="matrix(1 0 0 1 293.081 409.151)">d</text>
</g>
<g style="stroke:none;fill:#000000;text-rendering:optimizeGeometricPrecision;font-size:8.0514px;font-family:Arial,Helvetica,sans-serif">
	<text transform="matrix(1 0 0 1 299.796 409.151)">A</text>
</g>
<g style="stroke:none;fill:#000000;text-rendering:optimizeGeometricPrecision;font-size:8.0514px;font-family:Arial,Helvetica,sans-serif">
	<text transform="matrix(1 0 0 1 305.191 409.151)">L</text>
</g>
<g style="stroke:none;fill:#000000;text-rendering:optimizeGeometricPrecision;font-size:8.0514px;font-family:Arial,Helvetica,sans-serif">
	<text transform="matrix(1 0 0 1 309.628 409.151)">U</text>
</g>
<g style="stroke:none;fill:#000000;text-rendering:optimizeGeometricPrecision;font-size:8.0514px;font-family:Arial,Helvetica,sans-serif">
	<text transform="matrix(1 0 0 1 317.661 409.151)">o</text>
</g>
<g style="stroke:none;fill:#000000;text-rendering:optimizeGeometricPrecision;font-size:8.0514px;font-family:Arial,Helvetica,sans-serif">
	<text transform="matrix(1 0 0 1 322.098 409.151)">p</text>
</g>
<g style="stroke:none;fill:#000000;text-rendering:optimizeGeometricPrecision;font-size:8.0514px;font-family:Arial,Helvetica,sans-serif">
	<text transform="matrix(1 0 0 1 326.534 409.151)">e</text>
</g>
<g style="stroke:none;fill:#000000;text-rendering:optimizeGeometricPrecision;font-size:8.0514px;font-family:Arial,Helvetica,sans-serif">
	<text transform="matrix(1 0 0 1 330.97 409.151)">r</text>
</g>
<g style="stroke:none;fill:#000000;text-rendering:optimizeGeometricPrecision;font-size:8.0514px;font-family:Arial,Helvetica,sans-serif">
	<text transform="matrix(1 0 0 1 333.608 409.151)">a</text>
</g>
<g style="stroke:none;fill:#000000;text-rendering:optimizeGeometricPrecision;font-size:8.0514px;font-family:Arial,Helvetica,sans-serif">
	<text transform="matrix(1 0 0 1 338.045 409.151)">t</text>
</g>
<g style="stroke:none;fill:#000000;text-rendering:optimizeGeometricPrecision;font-size:8.0514px;font-family:Arial,Helvetica,sans-serif">
	<text transform="matrix(1 0 0 1 340.323 409.151)">i</text>
</g>
<g style="stroke:none;fill:#000000;text-rendering:optimizeGeometricPrecision;font-size:8.0514px;font-family:Arial,Helvetica,sans-serif">
	<text transform="matrix(1 0 0 1 342.122 409.151)">o</text>
</g>
<g style="stroke:none;fill:#000000;text-rendering:optimizeGeometricPrecision;font-size:8.0514px;font-family:Arial,Helvetica,sans-serif">
	<text transform="matrix(1 0 0 1 346.558 409.151)">n</text>
</g>
<g style="stroke:none;fill:#000000;text-rendering:optimizeGeometricPrecision;font-size:8.0514px;font-family:Arial,Helvetica,sans-serif">
	<text transform="matrix(1 0 0 1 265.743 418.765)">W</text>
</g>
<g style="stroke:none;fill:#000000;text-rendering:optimizeGeometricPrecision;font-size:8.0514px;font-family:Arial,Helvetica,sans-serif">
	<text transform="matrix(1 0 0 1 273.657 418.765)">r</text>
</g>
<g style="stroke:none;fill:#000000;text-rendering:optimizeGeometricPrecision;font-size:8.0514px;font-family:Arial,Helvetica,sans-serif">
	<text transform="matrix(1 0 0 1 276.295 418.765)">i</text>
</g>
<g style="stroke:none;fill:#000000;text-rendering:optimizeGeometricPrecision;font-size:8.0514px;font-family:Arial,Helvetica,sans-serif">
	<text transform="matrix(1 0 0 1 278.093 418.765)">t</text>
</g>
<g style="stroke:none;fill:#000000;text-rendering:optimizeGeometricPrecision;font-size:8.0514px;font-family:Arial,Helvetica,sans-serif">
	<text transform="matrix(1 0 0 1 280.372 418.765)">e</text>
</g>
<g style="stroke:none;fill:#000000;text-rendering:optimizeGeometricPrecision;font-size:8.0514px;font-family:Arial,Helvetica,sans-serif">
	<text transform="matrix(1 0 0 1 287.086 418.765)">r</text>
</g>
<g style="stroke:none;fill:#000000;text-rendering:optimizeGeometricPrecision;font-size:8.0514px;font-family:Arial,Helvetica,sans-serif">
	<text transform="matrix(1 0 0 1 289.724 418.765)">e</text>
</g>
<g style="stroke:none;fill:#000000;text-rendering:optimizeGeometricPrecision;font-size:8.0514px;font-family:Arial,Helvetica,sans-serif">
	<text transform="matrix(1 0 0 1 294.16 418.765)">g</text>
</g>
<g style="stroke:none;fill:#000000;text-rendering:optimizeGeometricPrecision;font-size:8.0514px;font-family:Arial,Helvetica,sans-serif">
	<text transform="matrix(1 0 0 1 298.597 418.765)">i</text>
</g>
<g style="stroke:none;fill:#000000;text-rendering:optimizeGeometricPrecision;font-size:8.0514px;font-family:Arial,Helvetica,sans-serif">
	<text transform="matrix(1 0 0 1 300.396 418.765)">s</text>
</g>
<g style="stroke:none;fill:#000000;text-rendering:optimizeGeometricPrecision;font-size:8.0514px;font-family:Arial,Helvetica,sans-serif">
	<text transform="matrix(1 0 0 1 304.472 418.765)">t</text>
</g>
<g style="stroke:none;fill:#000000;text-rendering:optimizeGeometricPrecision;font-size:8.0514px;font-family:Arial,Helvetica,sans-serif">
	<text transform="matrix(1 0 0 1 306.75 418.765)">e</text>
</g>
<g style="stroke:none;fill:#000000;text-rendering:optimizeGeometricPrecision;font-size:8.0514px;font-family:Arial,Helvetica,sans-serif">
	<text transform="matrix(1 0 0 1 311.187 418.765)">r</text>
</g>
<g style="stroke:none;fill:#000000;text-rendering:optimizeGeometricPrecision;font-size:8.0514px;font-family:Arial,Helvetica,sans-serif">
	<text transform="matrix(1 0 0 1 313.825 418.765)">(</text>
</g>
<g style="stroke:none;fill:#000000;text-rendering:optimizeGeometricPrecision;font-size:8.0514px;font-family:Arial,Helvetica,sans-serif">
	<text transform="matrix(1 0 0 1 316.463 418.765)">s</text>
</g>
<g style="stroke:none;fill:#000000;text-rendering:optimizeGeometricPrecision;font-size:8.0514px;font-family:Arial,Helvetica,sans-serif">
	<text transform="matrix(1 0 0 1 320.539 418.765)">)</text>
</g>
<g style="stroke:none;fill:#000000;text-rendering:optimizeGeometricPrecision;font-size:8.0514px;font-family:Arial,Helvetica,sans-serif">
	<text transform="matrix(1 0 0 1 325.455 418.765)">b</text>
</g>
<g style="stroke:none;fill:#000000;text-rendering:optimizeGeometricPrecision;font-size:8.0514px;font-family:Arial,Helvetica,sans-serif">
	<text transform="matrix(1 0 0 1 329.892 418.765)">a</text>
</g>
<g style="stroke:none;fill:#000000;text-rendering:optimizeGeometricPrecision;font-size:8.0514px;font-family:Arial,Helvetica,sans-serif">
	<text transform="matrix(1 0 0 1 334.328 418.765)">c</text>
</g>
<g style="stroke:none;fill:#000000;text-rendering:optimizeGeometricPrecision;font-size:8.0514px;font-family:Arial,Helvetica,sans-serif">
	<text transform="matrix(1 0 0 1 338.405 418.765)">k</text>
</g>
<g style="stroke:none;fill:#000000;text-rendering:optimizeGeometricPrecision;font-size:8.0514px;font-family:Arial,Helvetica,sans-serif">
	<text transform="matrix(1 0 0 1 344.76 418.765)">t</text>
</g>
<g style="stroke:none;fill:#000000;text-rendering:optimizeGeometricPrecision;font-size:8.0514px;font-family:Arial,Helvetica,sans-serif">
	<text transform="matrix(1 0 0 1 347.038 418.765)">o</text>
</g>
<g style="stroke:none;fill:#000000;text-rendering:optimizeGeometricPrecision;font-size:8.0514px;font-family:Arial,Helvetica,sans-serif">
	<text transform="matrix(1 0 0 1 353.752 418.765)">r</text>
</g>
<g style="stroke:none;fill:#000000;text-rendering:optimizeGeometricPrecision;font-size:8.0514px;font-family:Arial,Helvetica,sans-serif">
	<text transform="matrix(1 0 0 1 356.39 418.765)">e</text>
</g>
<g style="stroke:none;fill:#000000;text-rendering:optimizeGeometricPrecision;font-size:8.0514px;font-family:Arial,Helvetica,sans-serif">
	<text transform="matrix(1 0 0 1 360.826 418.765)">g</text>
</g>
<g style="stroke:none;fill:#000000;text-rendering:optimizeGeometricPrecision;font-size:8.0514px;font-family:Arial,Helvetica,sans-serif">
	<text transform="matrix(1 0 0 1 365.263 418.765)">i</text>
</g>
<g style="stroke:none;fill:#000000;text-rendering:optimizeGeometricPrecision;font-size:8.0514px;font-family:Arial,Helvetica,sans-serif">
	<text transform="matrix(1 0 0 1 367.062 418.765)">s</text>
</g>
<g style="stroke:none;fill:#000000;text-rendering:optimizeGeometricPrecision;font-size:8.0514px;font-family:Arial,Helvetica,sans-serif">
	<text transform="matrix(1 0 0 1 371.138 418.765)">t</text>
</g>
<g style="stroke:none;fill:#000000;text-rendering:optimizeGeometricPrecision;font-size:8.0514px;font-family:Arial,Helvetica,sans-serif">
	<text transform="matrix(1 0 0 1 373.416 418.765)">e</text>
</g>
<g style="stroke:none;fill:#000000;text-rendering:optimizeGeometricPrecision;font-size:8.0514px;font-family:Arial,Helvetica,sans-serif">
	<text transform="matrix(1 0 0 1 377.853 418.765)">r</text>
</g>
<g style="stroke:none;fill:#000000;text-rendering:optimizeGeometricPrecision;font-size:8.0514px;font-family:Arial,Helvetica,sans-serif">
	<text transform="matrix(1 0 0 1 382.769 418.765)">b</text>
</g>
<g style="stroke:none;fill:#000000;text-rendering:optimizeGeometricPrecision;font-size:8.0514px;font-family:Arial,Helvetica,sans-serif">
	<text transform="matrix(1 0 0 1 387.205 418.765)">a</text>
</g>
<g style="stroke:none;fill:#000000;text-rendering:optimizeGeometricPrecision;font-size:8.0514px;font-family:Arial,Helvetica,sans-serif">
	<text transform="matrix(1 0 0 1 391.642 418.765)">n</text>
</g>
<g style="stroke:none;fill:#000000;text-rendering:optimizeGeometricPrecision;font-size:8.0514px;font-family:Arial,Helvetica,sans-serif">
	<text transform="matrix(1 0 0 1 396.078 418.765)">k</text>
</g>
</g>
</g>
</svg>
