<!DOCTYPE svg PUBLIC "-//W3C//DTD SVG 1.1//EN" "http://www.w3.org/Graphics/SVG/1.1/DTD/svg11.dtd"><svg xmlns:ev="http://www.w3.org/2001/xml-events" xmlns:xlink="http://www.w3.org/1999/xlink" xmlns="http://www.w3.org/2000/svg" xmlns:v="http://schemas.microsoft.com/visio/2003/SVGExtensions/" width="283.53792" height="120.3888" viewBox="0 0 212.654 90.2913" xml:space="preserve" color-interpolation-filters="sRGB" class="st8" version="1.1">
	

	<style type="text/css">
	<![CDATA[
		.st1 {fill:#ffffff;stroke:#000000;stroke-linecap:butt;stroke-width:0.5}
		.st2 {fill:#000000;font-family:Arial,Helvetica,sans-serif;font-size:0.666664em}
		.st3 {fill:#ffffff;stroke:none;stroke-linecap:butt;stroke-width:0.5}
		.st4 {fill:#000000;font-family:Arial,Helvetica,sans-serif;font-size:0.499992em}
		.st5 {fill:#000000;font-family:'Lucida Sans Typewriter','Lucida Console','Courier New',Courier,monospace;font-size:0.666664em}
		.st6 {marker-end:url(#mrkr4-63);stroke:#000000;stroke-linecap:butt;stroke-width:0.5}
		.st7 {fill:#000000;fill-opacity:1;stroke:#000000;stroke-opacity:1;stroke-width:0.21739130434783}
		.st8 {fill:none;fill-rule:evenodd;font-size:12px;overflow:visible;stroke-linecap:square;stroke-miterlimit:3}
	]]>
	</style>

	<defs id="Markers">
		<g id="lend4">
			<path d="M 2 1 L -0 0 L 2 -1 L 2 1 " style="stroke:none" />
		</g>
		<marker overflow="visible" id="mrkr4-63" class="st7" orient="auto">
			<use xlink:href="#lend4" transform="scale(-4.6,-4.6) " />
		</marker>
	</defs>
	<g>
		<title>Page-1</title>
		
		<g id="shape1-1" transform="translate(119.555,-58.6102)">
			<title>Block</title>
			<desc>78</desc>
			
			
			
			
			<rect x="0" y="76.1181" width="17.0079" height="14.1732" class="st1" />
			<text x="4.05" y="85.6" class="st2">78</text>		</g>
		<g id="shape2-4" transform="translate(136.563,-58.6102)">
			<title>Block.2</title>
			<desc>56</desc>
			
			
			
			
			<rect x="0" y="76.1181" width="17.0079" height="14.1732" class="st1" />
			<text x="4.05" y="85.6" class="st2">56</text>		</g>
		<g id="shape3-7" transform="translate(153.571,-58.6102)">
			<title>Block.3</title>
			<desc>34</desc>
			
			
			
			
			<rect x="0" y="76.1181" width="17.0079" height="14.1732" class="st1" />
			<text x="4.05" y="85.6" class="st2">34</text>		</g>
		<g id="shape4-10" transform="translate(170.579,-58.6102)">
			<title>Block.4</title>
			<desc>12</desc>
			
			
			
			
			<rect x="0" y="76.1181" width="17.0079" height="14.1732" class="st1" />
			<text x="4.05" y="85.6" class="st2">12</text>		</g>
		<g id="shape5-13" transform="translate(119.555,-18.9252)">
			<title>Block.5</title>
			<desc>12</desc>
			
			
			
			
			<rect x="0" y="76.1181" width="17.0079" height="14.1732" class="st1" />
			<text x="4.05" y="85.6" class="st2">12</text>		</g>
		<g id="shape6-16" transform="translate(136.563,-18.9252)">
			<title>Block.6</title>
			<desc>34</desc>
			
			
			
			
			<rect x="0" y="76.1181" width="17.0079" height="14.1732" class="st1" />
			<text x="4.05" y="85.6" class="st2">34</text>		</g>
		<g id="shape7-19" transform="translate(153.571,-18.9252)">
			<title>Block.7</title>
			<desc>56</desc>
			
			
			
			
			<rect x="0" y="76.1181" width="17.0079" height="14.1732" class="st1" />
			<text x="4.05" y="85.6" class="st2">56</text>		</g>
		<g id="shape8-22" transform="translate(170.579,-18.9252)">
			<title>Block.8</title>
			<desc>78</desc>
			
			
			
			
			<rect x="0" y="76.1181" width="17.0079" height="14.1732" class="st1" />
			<text x="4.05" y="85.6" class="st2">78</text>		</g>
		<g id="shape9-25" transform="translate(119.555,-1.91732)">
			<title>Block.9</title>
			<desc>0</desc>
			
			
			
			
			<rect x="0" y="76.1181" width="17.0079" height="14.1732" class="st3" />
			<text x="6.84" y="85" class="st4">0</text>		</g>
		<g id="shape10-28" transform="translate(136.563,-1.91732)">
			<title>Block.10</title>
			<desc>1</desc>
			
			
			
			
			<rect x="0" y="76.1181" width="17.0079" height="14.1732" class="st3" />
			<text x="6.84" y="85" class="st4">1</text>		</g>
		<g id="shape11-31" transform="translate(153.571,-1.91732)">
			<title>Block.11</title>
			<desc>2</desc>
			
			
			
			
			<rect x="0" y="76.1181" width="17.0079" height="14.1732" class="st3" />
			<text x="6.84" y="85" class="st4">2</text>		</g>
		<g id="shape12-34" transform="translate(170.579,-1.91732)">
			<title>Block.12</title>
			<desc>3</desc>
			
			
			
			
			<rect x="0" y="76.1181" width="17.0079" height="14.1732" class="st3" />
			<text x="6.84" y="85" class="st4">3</text>		</g>
		<g id="shape13-37" transform="translate(170.579,-75.6181)">
			<title>Block.13</title>
			<desc>0</desc>
			
			
			
			
			<rect x="0" y="76.1181" width="17.0079" height="14.1732" class="st3" />
			<text x="6.84" y="85" class="st4">0</text>		</g>
		<g id="shape14-40" transform="translate(153.571,-75.6181)">
			<title>Block.14</title>
			<desc>1</desc>
			
			
			
			
			<rect x="0" y="76.1181" width="17.0079" height="14.1732" class="st3" />
			<text x="6.84" y="85" class="st4">1</text>		</g>
		<g id="shape15-43" transform="translate(136.563,-75.6181)">
			<title>Block.15</title>
			<desc>2</desc>
			
			
			
			
			<rect x="0" y="76.1181" width="17.0079" height="14.1732" class="st3" />
			<text x="6.84" y="85" class="st4">2</text>		</g>
		<g id="shape16-46" transform="translate(119.555,-75.6181)">
			<title>Block.16</title>
			<desc>3</desc>
			
			
			
			
			<rect x="0" y="76.1181" width="17.0079" height="14.1732" class="st3" />
			<text x="6.84" y="85" class="st4">3</text>		</g>
		<g id="shape17-49" transform="translate(74.2008,-68.5315)">
			<title>Block.17</title>
			<desc>Little endian</desc>
			
			
			
			
			<rect x="0" y="76.1181" width="40.6299" height="14.1732" class="st3" />
			<text x="4.14" y="85" class="st4">Little endian</text>		</g>
		<g id="shape18-52" transform="translate(74.2008,-7.58661)">
			<title>Block.18</title>
			<desc>Big endian</desc>
			
			
			
			
			<rect x="0" y="76.1181" width="40.6299" height="14.1732" class="st3" />
			<text x="6.14" y="85" class="st4">Big endian</text>		</g>
		<g id="shape19-55" transform="translate(0.5,-41.6024)">
			<title>Block.19</title>
			<desc>0x12345678</desc>
			
			
			
			
			<rect x="0" y="78.9528" width="68.0315" height="11.3386" class="st3" />
			<text x="9.91" y="87.02" class="st5">0x12345678</text>		</g>
		<g id="shape20-58" transform="translate(-19.6097,20.5981) rotate(-77.4712)">
			<title>Sheet.20</title>
			<path d="M0 90.29 L21.53 90.29" class="st6" />
		</g>
		<g id="shape21-64" transform="translate(157.228,28.9597) rotate(79.2157)">
			<title>Sheet.21</title>
			<path d="M0 90.29 L25.7 90.29" class="st6" />
		</g>
		<g id="shape22-69" transform="translate(191.366,-75.6181)">
			<title>Block.22</title>
			<desc>Byte</desc>
			
			
			
			
			<rect x="0" y="76.1181" width="20.7874" height="14.1732" class="st3" />
			<text x="4.39" y="85" class="st4">Byte</text>		</g>
		<g id="shape23-72" transform="translate(191.366,-0.5)">
			<title>Block.23</title>
			<desc>Byte</desc>
			
			
			
			
			<rect x="0" y="76.1181" width="20.7874" height="14.1732" class="st3" />
			<text x="4.39" y="85" class="st4">Byte</text>		</g>
	</g>
</svg>
